<?xml version="1.0" standalone="no"?>
<!DOCTYPE svg PUBLIC "-//W3C//DTD SVG 20010904//EN"
 "http://www.w3.org/TR/2001/REC-SVG-20010904/DTD/svg10.dtd">
<svg version="1.0" xmlns="http://www.w3.org/2000/svg"
 width="1232.000000pt" height="1280.000000pt" viewBox="0 0 1232.000000 1280.000000"
 preserveAspectRatio="xMidYMid meet">
<metadata>
Created by potrace 1.15, written by Peter Selinger 2001-2017
</metadata>
<g transform="translate(0.000000,1280.000000) scale(0.100000,-0.100000)"
fill="#45d6fe" stroke="none">
<path d="M5815 12790 c-727 -65 -1309 -318 -1760 -765 -428 -425 -691 -982
-781 -1660 -25 -183 -25 -596 -1 -795 106 -867 496 -1664 1129 -2303 58 -60
103 -107 100 -105 -4 2 -70 35 -147 74 -627 317 -1354 416 -2045 278 -365 -73
-749 -227 -1043 -420 -336 -220 -638 -524 -842 -849 -95 -151 -210 -396 -269
-575 -293 -885 -170 -1804 347 -2582 132 -200 236 -327 402 -493 233 -233 463
-402 733 -538 354 -179 669 -262 1042 -274 418 -14 779 68 1185 267 646 317
1251 933 1756 1787 l84 143 7 -53 c10 -85 9 -573 -2 -739 -63 -921 -305 -1789
-685 -2459 -121 -212 -298 -456 -462 -637 l-73 -79 47 -7 c97 -13 3225 3 3239
17 3 3 -18 34 -48 69 -589 695 -1017 1747 -1147 2823 -41 338 -60 723 -46 967
l7 137 113 -227 c341 -682 813 -1205 1407 -1558 838 -498 1815 -576 2618 -208
807 369 1355 1141 1540 2168 104 581 83 1077 -65 1536 -301 932 -1124 1615
-2180 1810 -378 70 -844 69 -1215 -1 -317 -61 -664 -178 -919 -311 -40 -21
-75 -38 -77 -38 -2 0 39 41 91 91 589 570 1000 1345 1129 2129 40 244 49 385
43 658 -8 323 -37 522 -118 800 -230 785 -774 1394 -1518 1697 -264 107 -519
171 -841 211 -148 18 -593 26 -735 14z"/>
</g>
</svg>
